<svg xmlns="http://www.w3.org/2000/svg" viewBox="0 0 512 512" fill="#FFFFFF">
  <path d="M0 0 C168.96 0 337.92 0 512 0 C512.12 74.25 512.12 74.25 512.25 150 C512.29 165.62 512.32 181.24 512.36 197.34 C512.38 216.43 512.38 216.43 512.38 225.38 C512.39 231.62 512.40 237.85 512.42 244.09 C512.45 251.29 512.46 258.50 512.45 265.70 C512.45 269.38 512.46 273.06 512.48 276.74 C512.63 304.74 508.46 326.63 488.59 347.53 C471.93 363.33 452.13 369.32 429.68 369.27 C428.12 369.27 426.56 369.28 425.01 369.28 C420.75 369.29 416.49 369.29 412.23 369.29 C407.63 369.29 403.03 369.30 398.43 369.31 C389.43 369.33 380.42 369.33 371.42 369.33 C364.09 369.34 356.77 369.34 349.44 369.35 C328.66 369.36 307.88 369.37 287.09 369.37 C285.97 369.37 284.85 369.37 283.70 369.37 C282.58 369.37 281.46 369.37 280.30 369.37 C262.14 369.37 243.98 369.39 225.82 369.42 C207.16 369.45 188.50 369.46 169.83 369.46 C159.36 369.46 148.89 369.46 138.42 369.48 C129.50 369.50 120.59 369.51 111.67 369.49 C107.12 369.49 102.58 369.49 98.03 369.50 C93.86 369.52 89.69 369.52 85.52 369.50 C84.02 369.50 82.52 369.50 81.03 369.51 C57.80 369.67 38.27 361.57 21.47 345.59 C6.63 329.94 -0.35 310.74 -0.24 289.45 C-0.24 288.21 -0.24 286.98 -0.25 285.70 C-0.26 283.68 -0.27 281.66 -0.32 279.64 C-0.34 277.61 0.41 276.07 1.00 274.18 C1.61 272.25 1.72 270.21 1.67 268.20 C1.60 265.79 1.49 263.38 1.39 260.97 C1.36 260.14 1.33 259.32 1.33 258.50 C1.36 257.65 1.39 256.80 1.44 255.96 C1.62 252.82 2.09 249.72 2.67 246.61 C3.25 247.20 3.82 247.80 4.42 248.42 C2.79 229.52 -1.03 211.18 -9.32 193.52 C-10.27 191.63 -10.96 190.30 -11.33 188.20 C-11.68 186.10 -11.60 183.97 -11.24 181.86 C-10.83 179.67 -10.11 178.02 -9.03 176.20 C-6.89 172.58 -4.14 170.35 -0.24 169.45 C2.96 168.76 6.14 168.77 9.32 169.45 C13.26 170.37 16.01 172.60 18.14 175.98 C19.19 177.76 19.96 179.66 20.38 181.86 C20.79 184.06 20.85 186.28 20.38 188.48 C19.92 190.58 19.19 192.31 17.91 194.02 C16.45 196.05 14.72 197.62 12.67 198.97 C11.73 199.58 11.73 199.58 10.77 200.21 C12.42 207.80 13.78 215.46 14.97 223.18 C15.06 223.83 15.15 224.49 15.24 225.17 C15.42 226.32 15.61 227.46 15.80 228.62 C16.21 231.46 16.64 234.30 17.09 237.14 C17.44 239.31 17.80 241.47 18.18 243.63 C18.50 245.44 18.83 247.24 19.18 249.04 C19.55 250.97 20.11 251.64 21.47 253.08 C22.91 254.59 24.34 256.13 24.89 258.47 C25.14 259.81 25.09 261.26 24.67 262.79 C23.54 266.94 19.94 271.33 15.97 272.82 C12.21 274.24 8.52 273.97 5.04 271.61 C1.68 269.33 0.05 266.29 0.25 261.95 C0.37 259.55 1.13 257.26 1.77 254.94 C1.52 256.09 1.27 257.24 1.01 258.43 C0.74 259.68 0.47 260.94 0.19 262.23 C0.13 262.48 0.06 262.72 0 262.97 L0 0 Z"/>
  <path d="M429.68 369.27 C413.13 346.84 413.59 313.80 424.18 288.20 C434.78 262.59 444.30 236.73 444.30 209.73 C444.30 163.57 422.74 131.79 381.80 118.43 C353.71 109.37 322.80 110.53 294.65 120.47 C282.22 124.85 269.95 129.70 257.81 134.84 C246.19 139.78 234.72 144.96 223.02 149.64 C210.01 154.83 196.92 159.72 183.76 164.52 C167.43 170.39 151.00 175.84 134.52 181.33 C128.15 183.45 121.76 185.50 115.38 187.59 C112.28 188.60 109.18 189.62 106.08 190.56 C108.56 191.48 111.06 191.72 113.67 191.70 C116.28 191.68 118.89 191.56 121.49 191.33 C124.46 191.07 127.42 190.70 130.38 190.26 C163.30 185.48 195.52 178.92 227.63 170.44 C262.22 161.27 296.52 151.26 331.18 142.47 C367.92 133.17 404.55 126.01 442.26 127.82 C476.78 129.43 505.28 145.58 512.00 179.86 L512 0 C503.68 0.48 495.36 0.96 487.04 1.14 C481.61 1.24 476.18 1.30 470.75 1.30 C463.01 1.30 455.28 1.24 447.54 1.14 C438.66 1.03 429.78 0.85 420.90 0.64 C416.48 0.54 412.05 0.42 407.63 0.27 C401.86 0.10 396.09 -0.01 390.32 -0.23 C377.94 -0.63 365.58 -0.16 353.21 0.37 C334.26 1.18 315.34 2.42 296.42 3.83 C274.78 5.45 253.15 7.18 231.52 8.93 C209.84 10.68 188.17 12.45 166.49 14.19 C149.66 15.54 132.83 16.84 116.00 18.14 C102.72 19.17 89.43 20.15 76.15 21.13 C63.42 22.07 50.70 23.04 37.97 24.01 C34.75 24.25 31.53 24.51 28.31 24.77 C24.44 25.06 20.57 25.37 16.70 25.68 C16.17 25.73 15.64 25.77 15.09 25.81 C15.51 26.18 15.93 26.55 16.37 26.93 C13.87 30.93 13.29 34.87 15.09 39.56 C15.90 41.73 16.90 43.38 18.61 45.02 C29.67 55.69 41.88 63.89 57.09 65.67 C72.29 67.25 86.95 65.17 101.52 61.08 C119.88 55.88 137.88 49.64 156.04 43.93 C177.45 37.12 198.94 30.50 220.41 23.81 C246.21 15.74 272.04 7.78 297.83 -0.01 C301.73 -1.17 301.73 -1.17 310.28 -2.87 C312.77 -3.56 312.77 -3.56 314.82 -4.54 C317.55 -5.88 318.93 -6.98 316.46 -0.01 L512 0 Z"/>
  <path d="M0 512 C168.96 512 337.92 512 512 512 L512 262.97 C511.87 262.77 511.74 262.58 511.61 262.38 C511.40 262.69 511.19 263.01 510.98 263.34 C510.65 263.04 510.33 262.74 510.00 262.43 C509.79 262.62 509.57 262.81 509.35 263.01 C509.35 263.18 509.35 263.35 509.35 263.53 C509.55 263.81 509.75 264.09 509.96 264.39 C510.29 264.04 510.62 263.68 510.96 263.31 C511.16 263.51 511.36 263.72 511.56 263.93 C511.41 264.22 511.25 264.51 511.09 264.81 C510.77 264.43 510.45 264.05 510.11 263.66 C510.07 263.62 510.03 263.58 510.00 263.53 L512 512 Z"/>
  <path d="M0 512 C-0.06 510.80 -0.12 509.61 -0.18 508.37 C-0.25 506.42 -0.32 504.46 -0.39 502.45 C-0.78 494.15 -0.68 485.85 -0.43 477.53 C-0.26 471.67 -0.12 465.81 0.00 459.95 C0.05 457.07 0.08 454.19 0.10 451.30 C0.12 448.46 0.10 445.62 0.06 442.78 C0.01 438.56 0.10 434.35 0.22 430.13 C0.36 424.96 0.56 419.78 0.77 414.62 C1.21 403.33 2.18 392.10 4.41 381.03 C5.20 377.14 6.03 373.25 6.87 369.36 C1.66 369.31 -3.55 369.27 -8.81 369.23 C-11.70 369.21 -14.60 369.19 -17.49 369.17 C-20.18 369.16 -22.87 369.15 -25.60 369.14 C-30.18 369.13 -34.76 369.14 -39.34 369.17 C-46.23 369.20 -53.12 369.27 -60.01 369.36 C-69.18 369.48 -78.35 369.65 -87.52 369.87 C-93.53 370.01 -99.54 370.18 -105.56 370.37 C-107.82 370.44 -110.08 370.51 -112.34 370.60 C-114.23 370.67 -116.12 370.75 -118.01 370.84 C-118.68 368.61 -119.31 366.38 -119.91 364.10 C-121.21 358.89 -122.18 353.67 -123.02 348.40 C-123.84 343.14 -124.41 337.86 -124.74 332.56 C-125.05 327.47 -125.13 322.39 -125.09 317.29 C-125.07 315.48 -125.05 313.67 -125.03 311.81 C-125.01 310.06 -124.97 308.33 -124.89 306.58 C-124.71 302.89 -124.36 299.27 -123.86 295.60 C-117.30 296.23 -110.74 296.85 -104.18 297.52 C-98.62 298.09 -93.07 298.63 -87.51 299.11 C-84.40 299.38 -81.29 299.63 -78.18 299.86 C-73.79 300.19 -69.40 300.49 -65.01 300.76 C-51.14 301.60 -37.27 302.20 -23.39 302.31 C-12.23 302.30 -1.09 302.30 10.05 302.30 C19.30 302.19 28.55 302.09 37.80 302.00 C53.04 301.86 68.28 301.72 83.52 301.56 C100.41 301.38 117.29 301.20 134.18 300.98 C165.94 300.56 197.70 300.11 229.46 299.56 C270.04 298.86 310.62 298.07 351.20 297.17 C380.62 296.51 410.03 295.79 439.45 295.06 C467.09 294.38 494.73 293.66 522.37 292.90 C530.08 292.69 537.78 292.45 545.49 292.19 C553.23 291.93 560.97 291.62 568.71 291.31 C574.95 291.05 581.19 290.78 587.43 290.47 C593.76 290.15 600.08 289.80 606.41 289.44 C617.97 288.76 629.54 288.04 641.10 287.23 C651.70 286.49 662.29 285.68 672.89 284.88 C681.33 284.24 689.78 283.56 698.22 282.86 C706.64 282.17 715.06 281.44 723.48 280.68 C732.59 279.85 741.70 278.98 750.81 278.09 C758.65 277.32 766.48 276.53 774.32 275.74 C781.04 275.06 787.76 274.36 794.48 273.63 C802.03 272.81 809.57 271.95 817.12 271.07 C820.66 270.66 824.19 270.24 827.73 269.82 C832.29 269.28 836.84 268.73 841.40 268.17 C843.62 267.90 845.85 267.62 848.07 267.34 C851.33 266.93 854.59 266.51 857.85 266.08 C861.55 265.58 865.25 265.06 868.95 264.54 C869.80 264.42 870.64 264.30 871.51 264.18 C872.37 264.05 873.22 263.93 874.10 263.80 C877.02 263.39 879.93 262.97 882.85 262.56 C883.69 262.44 884.52 262.32 885.38 262.20 C886.19 262.08 887.00 261.97 887.83 261.85 C889.83 261.57 891.82 261.28 893.82 260.99 C918.34 257.52 942.87 254.03 967.39 250.54 C991.92 247.04 1016.44 243.55 1040.97 240.06 C1065.49 236.56 1090.02 233.07 1114.54 229.57 C1139.07 226.08 1163.59 222.58 1188.12 219.09 C1212.64 215.60 1237.17 212.10 1261.69 208.61 C1286.22 205.11 1310.74 201.62 1335.27 198.12 C1359.79 194.63 1384.32 191.13 1408.84 187.64 C1433.37 184.14 1457.89 180.65 1482.42 177.15 C1506.94 173.66 1531.47 170.16 1555.99 166.67 C1580.52 163.18 1605.04 159.68 1629.57 156.19 C1654.09 152.69 1678.62 149.20 1703.14 145.70 C1727.67 142.21 1752.19 138.71 1776.72 135.22 C1801.24 131.72 1825.77 128.23 1850.29 124.73 C1874.82 121.24 1899.34 117.74 1923.87 114.25 C1923.87 282.22 1923.87 450.20 1923.87 614.25 C1289.58 614.25 655.29 614.25 0 614.25 L0 512 Z"/>
  <path d="M-0.24 169.45 C-4.14 170.35 -6.89 172.58 -9.03 176.20 C-10.11 178.02 -10.83 179.67 -11.24 181.86 C-11.60 183.97 -11.68 186.10 -11.33 188.20 C-10.96 190.30 -10.27 191.63 -9.32 193.52 C-1.03 211.18 2.79 229.52 4.42 248.42 C3.82 247.80 3.25 247.20 2.67 246.61 C2.09 249.72 1.62 252.82 1.44 255.96 C1.39 256.80 1.36 257.65 1.33 258.50 C1.33 259.32 1.36 260.14 1.39 260.97 C1.49 263.38 1.60 265.79 1.67 268.20 C1.72 270.21 1.61 272.25 1.00 274.18 C0.41 276.07 -0.34 277.61 -0.32 279.64 C-0.27 281.66 -0.26 283.68 -0.25 285.70 C-0.24 286.98 -0.24 288.21 -0.24 289.45 C-0.35 310.74 6.63 329.94 21.47 345.59 C28.17 352.67 35.54 357.60 44.32 360.91 C53.10 364.21 62.22 365.60 71.55 365.60 C83.02 365.60 94.49 365.60 105.96 365.60 L106.08 190.56 C103.06 191.50 100.04 192.44 97.02 193.38 C92.93 194.63 88.84 195.88 84.75 197.13 C78.67 198.98 72.58 200.83 66.50 202.68 C58.42 205.14 50.35 207.58 42.28 210.00 C30.63 213.52 19.29 214.64 7.41 211.46 C1.95 210.02 -2.46 207.58 -5.83 203.18 C-9.35 198.60 -10.80 193.58 -10.43 187.82 C-10.06 182.06 -7.77 177.58 -3.76 173.60 C-2.60 172.45 -2.60 172.45 -0.24 169.45 Z"/>
</svg>
