<?xml version="1.0" encoding="UTF-8"?>
<svg version="1.1" xmlns="http://www.w3.org/2000/svg" width="512" height="512">
<path d="M0 0 C168.96 0 337.92 0 512 0 C512.12375 74.25 512.12375 74.25 512.25 150 C512.28641602 165.62085938 512.32283203 181.24171875 512.36035156 197.3359375 C512.37841797 216.43359375 512.37841797 216.43359375 512.3817749 225.37841797 C512.38549647 231.61610987 512.40013264 237.85365753 512.42230225 244.09130859 C512.44786701 251.29494483 512.45931976 258.49844332 512.4537798 265.70212519 C512.45138283 269.38264767 512.45502974 273.06286279 512.47686052 276.74332809 C512.6346735 304.74438803 508.45962929 326.63337698 488.59375 347.53125 C471.92952398 363.32980194 452.12581937 369.31871897 429.67503357 369.26742554 C428.11949238 369.27116602 426.56395307 369.27576912 425.00841671 369.28115618 C420.74982406 369.29335279 416.49131016 369.29312966 412.23270404 369.29076743 C407.633319 369.29035841 403.03395891 369.30140666 398.43458557 369.31088257 C389.4287037 369.32747601 380.42284801 369.3329914 371.41695213 369.33410732 C364.0927385 369.33505873 356.76853349 369.33917367 349.44432259 369.34550858 C328.66095642 369.36311769 307.87761088 369.37234815 287.0942372 369.37084763 C285.97444508 369.37076772 284.85465295 369.3706878 283.70092773 369.37060547 C282.57976183 369.37052371 281.45859593 369.37044195 280.3034553 369.37035771 C262.1438615 369.36954525 243.98435073 369.38867358 225.82478093 369.4168822 C207.16112803 369.4456441 188.49751557 369.45942063 169.83383995 369.45769465 C159.36274176 369.45703182 148.89173057 369.46247717 138.42065239 369.48405075 C129.50313706 369.50230623 120.58574816 369.50657423 111.66822218 369.4930319 C107.12341593 369.48652381 102.57885193 369.48630642 98.03406906 369.5037384 C93.86320705 369.51957072 89.69277733 369.5165031 85.52192522 369.49917014 C84.02326339 369.49612238 82.52456847 369.49964742 81.02594572 369.51089029 C57.80181499 369.67340387 38.27118982 361.5664397 21.46875 345.59375 C6.62553683 329.93721008 -0.34847265 310.738689 -0.24050903 289.45262146 C-0.24222107 288.21467834 -0.24393311 286.97673523 -0.24569702 285.70127869 C-0.24842071 282.27967241 -0.2421888 278.85829729 -0.23214546 275.43671899 C-0.2233818 271.68487207 -0.22633668 267.93303054 -0.2277813 264.18117619 C-0.22884256 256.90561175 -0.21962795 249.63009687 -0.20677864 242.35454515 C-0.19235523 233.93496699 -0.19078786 225.51541843 -0.18920898 217.0958252 C-0.17871654 194.87637563 -0.15079422 172.65693707 -0.125 150.4375 C-0.08375 100.793125 -0.0425 51.14875 0 0 Z M150.26988792 69.27613449 C148.41359311 70.95870731 146.65349197 72.70505086 144.90307617 74.49755859 C144.2322702 75.16442184 143.56146423 75.8312851 142.87033081 76.51835632 C140.66555232 78.71644502 138.47919184 80.93190506 136.29296875 83.1484375 C134.76171715 84.68394106 133.22950142 86.21848371 131.69636536 87.75210571 C128.49043924 90.96419053 125.29294471 94.18435704 122.10180664 97.41113281 C118.01022075 101.54804721 113.90347922 105.66948975 109.79102612 109.78565025 C106.62898343 112.95212003 103.47241061 116.12399326 100.3177433 119.2978096 C98.80491913 120.81951433 97.29101654 122.34014772 95.77602196 123.85969162 C93.66214136 125.98260954 91.55507835 128.11205857 89.44995117 130.24365234 C88.82293808 130.87133011 88.19592499 131.49900787 87.5499115 132.14570618 C86.97670166 132.72889114 86.40349182 133.31207611 85.81291199 133.91293335 C85.31501758 134.41547827 84.81712317 134.91802319 84.30414104 135.43579674 C81.39106114 138.92978162 80.40476896 142.24072385 80.58346558 146.83198547 C82.50669331 156.84216813 93.97056788 165.42440877 100.8671875 172.30078125 C102.22986609 173.66802849 103.59217464 175.03564463 104.95413208 176.40361023 C107.79857232 179.25694627 110.64856489 182.10458953 113.50244141 184.94848633 C117.14793869 188.58247173 120.77729496 192.23211465 124.4024334 195.88639545 C127.20761221 198.70996535 130.02209233 201.52411851 132.83932877 204.33565331 C134.18114887 205.6773207 135.51989538 207.02206977 136.8554039 208.37001991 C138.72598711 210.25557372 140.60900252 212.12780711 142.49560547 213.99731445 C143.03716278 214.54853973 143.57872009 215.09976501 144.13668823 215.66769409 C148.68205413 220.12775576 153.67261149 223.37611465 160 224.5625 C165.60882996 223.51084438 169.74986826 220.79706438 173 216.125 C174.51883389 211.37864409 174.73979502 207.77845811 172.80766296 203.13363647 C170.83312148 199.71071121 168.50191505 197.10023411 165.70239258 194.36181641 C165.17526169 193.83424744 164.6481308 193.30667847 164.10502625 192.76312256 C162.3752154 191.03538798 160.63505229 189.31850133 158.89453125 187.6015625 C157.68747078 186.40010211 156.48107455 185.19797403 155.27531433 183.99520874 C152.11069074 180.84200142 148.93716006 177.69791037 145.76165771 174.55566406 C142.51859533 171.34337193 139.28408205 168.12249665 136.04882812 164.90234375 C129.70753336 158.59315634 123.35679092 152.29357137 117 146 C118.58971357 142.11125437 121.09015028 139.68736947 124.06054688 136.76000977 C124.57456558 136.25051788 125.08858429 135.741026 125.61817932 135.21609497 C126.73184475 134.11336543 127.84777727 133.01292178 128.9657135 131.91452217 C130.73578925 130.17465782 132.49906278 128.42815813 134.26062012 126.67967224 C139.26928767 121.71071879 144.29055509 116.75456701 149.31494141 111.80151367 C152.39043355 108.76876526 155.45855901 105.72871796 158.5224762 102.68427849 C159.69015787 101.52715415 160.8607446 100.37295368 162.0342865 99.22177315 C163.67621069 97.61108865 165.30868404 95.99135149 166.93945312 94.36938477 C167.8705188 93.45101334 168.80158447 92.53264191 169.76086426 91.58644104 C172.85048209 88.01760231 173.85811832 85.27693514 174.375 80.625 C173.88930429 75.92994145 172.73868536 73.84896321 170 70 C164.04214887 65.29643332 156.49198504 64.68670191 150.26988792 69.27613449 Z M279 69 C273.66800717 75.2753092 270.19937797 83.16243294 266.55151367 90.47705078 C265.93204822 91.70862514 265.31208962 92.93995156 264.69168091 94.17105103 C263.02307674 97.48621536 261.36206542 100.80512623 259.70303512 104.12509012 C258.31332786 106.904625 256.92014072 109.68240962 255.52706319 112.46025646 C252.24101707 119.01318087 248.96145933 125.56932402 245.68579102 132.12744141 C242.31220878 138.88126033 238.92682828 145.62907125 235.53578585 152.374138 C232.6163726 158.18225268 229.70472044 163.99421289 226.79914266 169.8092612 C225.06718679 173.27523676 223.33227086 176.73964727 221.58968163 180.20029068 C219.95306982 183.45122226 218.32621552 186.70685502 216.70663834 189.96630478 C215.8297104 191.72518332 214.94292962 193.4791388 214.05583191 195.23291016 C209.3078787 204.54023555 209.3078787 204.54023555 210.0625 214.625 C212.60425893 219.05258007 215.1159703 222.16270106 220.1796875 223.6328125 C225.27865931 224.4397205 228.65095515 224.03421734 233 221 C235.87306926 217.7069995 237.98512539 214.40877639 239.94194031 210.51052856 C240.49291382 209.41993134 241.04388733 208.32933411 241.61155701 207.20568848 C242.2095081 206.00714343 242.80732783 204.80853284 243.4050293 203.60986328 C244.04389963 202.33946844 244.68326619 201.06932305 245.3230896 199.79940796 C247.05384301 196.36006896 248.77690264 192.91693099 250.49803519 189.47276926 C251.9373488 186.59402215 253.380135 183.71702143 254.82282573 180.8399657 C258.22679923 174.05123493 261.62423951 167.25926212 265.01782227 160.46533203 C268.51519889 153.46393576 272.02434328 146.46852871 275.53919858 139.47589314 C278.56048207 133.46403963 281.57400337 127.44833888 284.58145076 121.42955196 C286.37603361 117.8383209 288.17358793 114.24865761 289.97879601 110.66275406 C291.6761178 107.29040232 293.3636848 103.91334438 295.04397202 100.53247452 C295.66089719 99.29521882 296.2812146 98.05964767 296.90522575 96.82595062 C302.17094269 87.25781428 302.17094269 87.25781428 302.43359375 76.70703125 C299.47082287 71.07195723 296.33714422 68.0881992 290.125 66.0625 C285.76563057 65.97531261 282.71697881 66.70141681 279 69 Z M341.6875 70.9375 C338.12785536 75.28817678 337.50936206 78.30859988 338 84 C339.96224423 88.74561529 342.67087698 92.09061326 346.29760742 95.63818359 C346.82473831 96.16575256 347.3518692 96.69332153 347.89497375 97.23687744 C349.6247846 98.96461202 351.36494771 100.68149867 353.10546875 102.3984375 C354.31252922 103.59989789 355.51892545 104.80202597 356.72468567 106.00479126 C359.88930926 109.15799858 363.06283994 112.30208963 366.23834229 115.44433594 C369.48140467 118.65662807 372.71591795 121.87750335 375.95117188 125.09765625 C382.29246664 131.40684366 388.64320908 137.70642863 395 144 C393.41028643 147.88874563 390.90984972 150.31263053 387.93945312 153.23999023 C387.42543442 153.74948212 386.91141571 154.258974 386.38182068 154.78390503 C385.26815525 155.88663457 384.15222273 156.98707822 383.0342865 158.08547783 C381.26421075 159.82534218 379.50093722 161.57184187 377.73937988 163.32032776 C372.73071233 168.28928121 367.70944491 173.24543299 362.68505859 178.19848633 C359.60956645 181.23123474 356.54144099 184.27128204 353.4775238 187.31572151 C352.30984213 188.47284585 351.1392554 189.62704632 349.9657135 190.77822685 C348.32378931 192.38891135 346.69131596 194.00864851 345.06054688 195.63061523 C344.1294812 196.54898666 343.19841553 197.46735809 342.23913574 198.41355896 C339.14951791 201.98239769 338.14188168 204.72306486 337.625 209.375 C338.15025696 214.45248395 339.69353053 217.91461699 343.5078125 221.36328125 C346.7624968 223.56586992 349.51085596 224.30102197 353.4375 224.125 C364.2416125 222.02053627 372.52467288 210.78512852 379.984375 203.31640625 C381.33077636 201.97389804 382.6773988 200.63161154 384.02423096 199.28953552 C386.83482852 196.48636862 389.64156033 193.6793989 392.44580078 190.86987305 C396.03053443 187.27933243 399.62653734 183.70031818 403.22573471 180.12428379 C406.00542852 177.35935112 408.77813336 174.5874912 411.54889679 171.81361198 C412.87177106 170.49124917 414.19699374 169.17123116 415.52465057 167.85367012 C417.38146672 166.00925448 419.22840899 164.15546347 421.07324219 162.29907227 C421.61668777 161.76327042 422.16013336 161.22746857 422.720047 160.6754303 C426.64970336 156.69142891 430.20136864 152.34133266 431.53125 146.77734375 C431.39108946 138.52539204 426.0093711 133.70606524 420.53833008 128.20019531 C419.89871338 127.54904251 419.25909668 126.89788971 418.60009766 126.227005 C416.49558449 124.08835667 414.38339366 121.95753078 412.26953125 119.828125 C411.54525122 119.09694206 410.82097118 118.36575912 410.07474327 117.61241913 C406.24457188 113.74649436 402.40835299 109.88668966 398.56713867 106.03173828 C394.60868529 102.05670914 390.67163378 98.06116495 386.73907948 94.06053543 C383.7026513 90.97928892 380.65068765 87.9137905 377.59433556 84.85231781 C376.13607773 83.38617906 374.68368575 81.91418091 373.23743629 80.43619537 C371.21072225 78.36795396 369.16289848 76.32306545 367.10864258 74.28222656 C366.52078476 73.6723439 365.93292694 73.06246124 365.32725525 72.43409729 C358.01853025 65.28572211 349.84989265 64.09873859 341.6875 70.9375 Z " fill="#000000" transform="translate(0,143)"/>
<path d="M0 0 C1.55554119 -0.00374048 3.1110805 -0.00834358 4.66661686 -0.01373065 C8.92520951 -0.02592725 13.18372341 -0.02570412 17.44232953 -0.02334189 C22.04171457 -0.02293287 26.64107466 -0.03398112 31.240448 -0.04345703 C40.24632987 -0.06005047 49.25218556 -0.06556586 58.25808144 -0.06668179 C65.58229507 -0.0676332 72.90650008 -0.07174814 80.23071098 -0.07808304 C101.01407715 -0.09569215 121.79742269 -0.10492261 142.58079637 -0.10342209 C144.26048455 -0.10330222 144.26048455 -0.10330222 145.97410583 -0.10317993 C147.65585469 -0.10305729 147.65585469 -0.10305729 149.37157827 -0.10293217 C167.53117207 -0.10211972 185.69068284 -0.12124805 203.85025264 -0.14945666 C222.51390554 -0.17821856 241.177518 -0.19199509 259.84119362 -0.19026911 C270.31229181 -0.18960628 280.783303 -0.19505164 291.25438118 -0.21662521 C300.17189651 -0.23488069 309.08928541 -0.23914869 318.00681139 -0.22560637 C322.55161764 -0.21909827 327.09618164 -0.21888089 331.64096451 -0.23631287 C335.81182652 -0.25214519 339.98225624 -0.24907756 344.15310835 -0.2317446 C345.65177018 -0.22869684 347.1504651 -0.23222188 348.64908785 -0.24346475 C371.87321858 -0.40597833 391.40384375 7.70098584 408.20628357 23.67367554 C433.02955086 49.85712186 429.67503357 78.45208201 429.67503357 114.26742554 C260.71503357 114.26742554 91.75503357 114.26742554 -82.32496643 114.26742554 C-82.32496643 46.35833463 -82.32496643 46.35833463 -58.91871643 21.73617554 C-42.25449041 5.9376236 -22.4507858 -0.05129343 0 0 Z M-13.32496643 46.26742554 C-16.2984463 49.52999373 -17.55686021 52.9480645 -17.82496643 57.32992554 C-17.08927368 63.12350595 -14.93027108 65.88102607 -10.57496643 69.64242554 C-5.99096416 71.93442667 -2.19668028 72.19942192 2.60081482 70.64242554 C6.92325695 68.56913423 9.20222142 65.79718966 11.07347107 61.41195679 C12.10213586 57.7448336 12.02120026 54.83583565 10.67503357 51.26742554 C8.25541786 47.28171552 5.79874116 44.78433103 1.55003357 42.82992554 C-4.49500853 41.64719991 -8.39233519 42.84086408 -13.32496643 46.26742554 Z M48.65550232 49.46273804 C46.78105398 52.91291785 46.43821413 56.38776582 46.67503357 60.26742554 C48.49977802 65.64028421 51.62305428 68.74143589 56.67503357 71.26742554 C61.38200774 71.84167639 64.79648149 71.72297106 69.05003357 69.51742554 C73.43399669 65.75974286 75.42563558 62.86116465 75.98753357 57.01742554 C75.62333367 52.64702675 74.5744861 49.53031919 71.67503357 46.26742554 C68.34813063 43.90594955 65.07047479 42.49999907 61.05003357 41.82992554 C55.8125997 42.79471599 51.91819303 45.21807245 48.65550232 49.46273804 Z M113.80003357 47.95492554 C111.29424256 51.86101152 110.25015223 54.63708599 110.67503357 59.26742554 C111.93540129 63.79815916 113.94920931 67.17766845 117.92503357 69.76742554 C122.02614381 71.73455336 125.16867078 71.83966208 129.67503357 71.26742554 C134.47182302 68.86903081 137.31187069 66.08464219 139.67503357 61.26742554 C140.61332792 56.4619554 140.27178996 52.55741982 137.61253357 48.39242554 C134.74955989 44.88690947 131.96960023 43.59483705 127.67503357 42.26742554 C121.64189328 42.26742554 118.10858266 43.92736878 113.80003357 47.95492554 Z " fill="#000000" transform="translate(82.32496643066406,-0.267425537109375)"/>
</svg>